<mxfile host="app.diagrams.net" agent="Mozilla/5.0 (Windows NT 10.0; Win64; x64) AppleWebKit/537.36 (KHTML, like Gecko) Chrome/139.0.0.0 Safari/537.36" version="28.1.0">
  <diagram name="第 1 页" id="qKps2COHC2__7lPThj9i">
    <mxGraphModel dx="1554" dy="849" grid="1" gridSize="10" guides="1" tooltips="1" connect="1" arrows="1" fold="1" page="1" pageScale="1" pageWidth="1900" pageHeight="2000" math="0" shadow="0">
      <root>
        <mxCell id="0" />
        <mxCell id="1" parent="0" />
        <mxCell id="5CDg7A2IwqHqPvgLmuk0-1" value="" style="rounded=0;whiteSpace=wrap;html=1;" vertex="1" parent="1">
          <mxGeometry x="840" y="660" width="180" height="80" as="geometry" />
        </mxCell>
        <mxCell id="5CDg7A2IwqHqPvgLmuk0-2" value="Immersive Purse" style="rounded=0;whiteSpace=wrap;html=1;labelPosition=center;verticalLabelPosition=top;align=center;verticalAlign=bottom;" vertex="1" parent="1">
          <mxGeometry x="110" y="590" width="1440" height="1510" as="geometry" />
        </mxCell>
        <mxCell id="5CDg7A2IwqHqPvgLmuk0-3" value="" style="rounded=0;whiteSpace=wrap;html=1;labelPosition=left;verticalLabelPosition=top;align=right;verticalAlign=bottom;" vertex="1" parent="1">
          <mxGeometry x="140" y="670" width="390" height="100" as="geometry" />
        </mxCell>
        <mxCell id="5CDg7A2IwqHqPvgLmuk0-4" value="Web 端" style="image;aspect=fixed;html=1;points=[];align=center;fontSize=12;image=img/lib/azure2/identity/Multi_Factor_Authentication.svg;fontFamily=Georgia;labelPosition=center;verticalLabelPosition=top;verticalAlign=bottom;" vertex="1" parent="1">
          <mxGeometry x="185" y="695" width="50" height="50" as="geometry" />
        </mxCell>
        <mxCell id="5CDg7A2IwqHqPvgLmuk0-5" value="终端层" style="text;html=1;align=center;verticalAlign=middle;resizable=0;points=[];autosize=1;strokeColor=none;fillColor=none;" vertex="1" parent="1">
          <mxGeometry x="140" y="630" width="60" height="30" as="geometry" />
        </mxCell>
        <mxCell id="5CDg7A2IwqHqPvgLmuk0-6" style="edgeStyle=orthogonalEdgeStyle;rounded=0;orthogonalLoop=1;jettySize=auto;html=1;exitX=0.5;exitY=1;exitDx=0;exitDy=0;" edge="1" parent="1" source="5CDg7A2IwqHqPvgLmuk0-3" target="5CDg7A2IwqHqPvgLmuk0-3">
          <mxGeometry relative="1" as="geometry" />
        </mxCell>
        <mxCell id="5CDg7A2IwqHqPvgLmuk0-7" value="AIPC / 摩托罗拉" style="image;aspect=fixed;html=1;points=[];align=center;fontSize=12;image=img/lib/azure2/identity/Users.svg;labelPosition=center;verticalLabelPosition=top;verticalAlign=bottom;" vertex="1" parent="1">
          <mxGeometry x="395" y="690.32" width="50" height="54.68" as="geometry" />
        </mxCell>
        <mxCell id="5CDg7A2IwqHqPvgLmuk0-8" value="" style="rounded=0;whiteSpace=wrap;html=1;labelPosition=left;verticalLabelPosition=top;align=right;verticalAlign=bottom;" vertex="1" parent="1">
          <mxGeometry x="140" y="810" width="630" height="100" as="geometry" />
        </mxCell>
        <mxCell id="5CDg7A2IwqHqPvgLmuk0-9" value="互动处理层" style="text;html=1;align=center;verticalAlign=middle;resizable=0;points=[];autosize=1;strokeColor=none;fillColor=none;" vertex="1" parent="1">
          <mxGeometry x="155" y="780" width="80" height="30" as="geometry" />
        </mxCell>
        <mxCell id="5CDg7A2IwqHqPvgLmuk0-10" value="API 网关" style="sketch=0;points=[[0,0,0],[0.25,0,0],[0.5,0,0],[0.75,0,0],[1,0,0],[0,1,0],[0.25,1,0],[0.5,1,0],[0.75,1,0],[1,1,0],[0,0.25,0],[0,0.5,0],[0,0.75,0],[1,0.25,0],[1,0.5,0],[1,0.75,0]];outlineConnect=0;fontColor=#232F3E;fillColor=#8C4FFF;strokeColor=#ffffff;dashed=0;verticalLabelPosition=top;verticalAlign=bottom;align=center;html=1;fontSize=12;fontStyle=0;aspect=fixed;shape=mxgraph.aws4.resourceIcon;resIcon=mxgraph.aws4.serverless;labelPosition=center;" vertex="1" parent="1">
          <mxGeometry x="260" y="830" width="60" height="60" as="geometry" />
        </mxCell>
        <mxCell id="5CDg7A2IwqHqPvgLmuk0-11" value="负载均衡" style="image;aspect=fixed;html=1;points=[];align=center;fontSize=12;image=img/lib/azure2/identity/Identity_Governance.svg;labelPosition=center;verticalLabelPosition=top;verticalAlign=bottom;" vertex="1" parent="1">
          <mxGeometry x="165" y="830" width="60" height="60" as="geometry" />
        </mxCell>
        <mxCell id="5CDg7A2IwqHqPvgLmuk0-12" value="分布式限流" style="sketch=0;points=[[0,0,0],[0.25,0,0],[0.5,0,0],[0.75,0,0],[1,0,0],[0,1,0],[0.25,1,0],[0.5,1,0],[0.75,1,0],[1,1,0],[0,0.25,0],[0,0.5,0],[0,0.75,0],[1,0.25,0],[1,0.5,0],[1,0.75,0]];outlineConnect=0;fontColor=#232F3E;fillColor=#E7157B;strokeColor=#ffffff;dashed=0;verticalLabelPosition=top;verticalAlign=bottom;align=center;html=1;fontSize=12;fontStyle=0;aspect=fixed;shape=mxgraph.aws4.resourceIcon;resIcon=mxgraph.aws4.application_integration;labelPosition=center;" vertex="1" parent="1">
          <mxGeometry x="360" y="830" width="60" height="60" as="geometry" />
        </mxCell>
        <mxCell id="5CDg7A2IwqHqPvgLmuk0-13" value="校验处理" style="sketch=0;points=[[0,0,0],[0.25,0,0],[0.5,0,0],[0.75,0,0],[1,0,0],[0,1,0],[0.25,1,0],[0.5,1,0],[0.75,1,0],[1,1,0],[0,0.25,0],[0,0.5,0],[0,0.75,0],[1,0.25,0],[1,0.5,0],[1,0.75,0]];outlineConnect=0;fontColor=#232F3E;fillColor=#01A88D;strokeColor=#ffffff;dashed=0;verticalLabelPosition=top;verticalAlign=bottom;align=center;html=1;fontSize=12;fontStyle=0;aspect=fixed;shape=mxgraph.aws4.resourceIcon;resIcon=mxgraph.aws4.bedrock;labelPosition=center;" vertex="1" parent="1">
          <mxGeometry x="460" y="829" width="58" height="58" as="geometry" />
        </mxCell>
        <mxCell id="5CDg7A2IwqHqPvgLmuk0-14" value="内存计算" style="image;sketch=0;aspect=fixed;html=1;points=[];align=center;fontSize=12;image=img/lib/mscae/Cache_Redis_Product.svg;labelPosition=center;verticalLabelPosition=top;verticalAlign=bottom;" vertex="1" parent="1">
          <mxGeometry x="570" y="830" width="71.43" height="60" as="geometry" />
        </mxCell>
        <mxCell id="5CDg7A2IwqHqPvgLmuk0-15" value="规则引擎" style="image;aspect=fixed;html=1;points=[];align=center;fontSize=12;image=img/lib/azure2/networking/Azure_Communications_Gateway.svg;labelPosition=center;verticalLabelPosition=top;verticalAlign=bottom;" vertex="1" parent="1">
          <mxGeometry x="680" y="829" width="58" height="58" as="geometry" />
        </mxCell>
        <mxCell id="5CDg7A2IwqHqPvgLmuk0-16" value="&lt;span style=&quot;color: rgba(0, 0, 0, 0); font-family: monospace; font-size: 0px; text-align: start; text-wrap-mode: nowrap;&quot;&gt;%3CmxGraphModel%3E%3Croot%3E%3CmxCell%20id%3D%220%22%2F%3E%3CmxCell%20id%3D%221%22%20parent%3D%220%22%2F%3E%3CmxCell%20id%3D%222%22%20value%3D%22%22%20style%3D%22rounded%3D0%3BwhiteSpace%3Dwrap%3Bhtml%3D1%3B%22%20vertex%3D%221%22%20parent%3D%221%22%3E%3CmxGeometry%20x%3D%22147.5%22%20y%3D%22980%22%20width%3D%22262.5%22%20height%3D%22100%22%20as%3D%22geometry%22%2F%3E%3C%2FmxCell%3E%3C%2Froot%3E%3C%2FmxGraphModel%3E&lt;/span&gt;" style="rounded=0;whiteSpace=wrap;html=1;labelPosition=center;verticalLabelPosition=top;align=center;verticalAlign=bottom;" vertex="1" parent="1">
          <mxGeometry x="140" y="950" width="630" height="160" as="geometry" />
        </mxCell>
        <mxCell id="5CDg7A2IwqHqPvgLmuk0-17" value="视频采集预处理层" style="text;html=1;align=center;verticalAlign=middle;resizable=0;points=[];autosize=1;strokeColor=none;fillColor=none;" vertex="1" parent="1">
          <mxGeometry x="135" y="920" width="120" height="30" as="geometry" />
        </mxCell>
        <mxCell id="5CDg7A2IwqHqPvgLmuk0-18" value="" style="rounded=0;whiteSpace=wrap;html=1;" vertex="1" parent="1">
          <mxGeometry x="147.5" y="980" width="262.5" height="100" as="geometry" />
        </mxCell>
        <mxCell id="5CDg7A2IwqHqPvgLmuk0-19" value="摄像机无人机" style="sketch=0;points=[[0,0,0],[0.25,0,0],[0.5,0,0],[0.75,0,0],[1,0,0],[0,1,0],[0.25,1,0],[0.5,1,0],[0.75,1,0],[1,1,0],[0,0.25,0],[0,0.5,0],[0,0.75,0],[1,0.25,0],[1,0.5,0],[1,0.75,0]];outlineConnect=0;fontColor=#232F3E;fillColor=#ED7100;strokeColor=#ffffff;dashed=0;verticalLabelPosition=top;verticalAlign=bottom;align=center;html=1;fontSize=12;fontStyle=0;aspect=fixed;shape=mxgraph.aws4.resourceIcon;resIcon=mxgraph.aws4.media_services;labelPosition=center;" vertex="1" parent="1">
          <mxGeometry x="170" y="1007.5" width="55" height="55" as="geometry" />
        </mxCell>
        <mxCell id="5CDg7A2IwqHqPvgLmuk0-20" value="ARVR处理引擎" style="sketch=0;outlineConnect=0;fontColor=#232F3E;gradientColor=none;fillColor=#ED7100;strokeColor=none;dashed=0;verticalLabelPosition=top;verticalAlign=bottom;align=center;html=1;fontSize=12;fontStyle=0;aspect=fixed;pointerEvents=1;shape=mxgraph.aws4.cloud_digital_interface;labelPosition=center;" vertex="1" parent="1">
          <mxGeometry x="257.5" y="1010" width="50.5" height="50.5" as="geometry" />
        </mxCell>
        <mxCell id="5CDg7A2IwqHqPvgLmuk0-21" value="防抖帧同步" style="sketch=0;points=[[0,0,0],[0.25,0,0],[0.5,0,0],[0.75,0,0],[1,0,0],[0,1,0],[0.25,1,0],[0.5,1,0],[0.75,1,0],[1,1,0],[0,0.25,0],[0,0.5,0],[0,0.75,0],[1,0.25,0],[1,0.5,0],[1,0.75,0]];outlineConnect=0;fontColor=#232F3E;fillColor=#ED7100;strokeColor=#ffffff;dashed=0;verticalLabelPosition=top;verticalAlign=bottom;align=center;html=1;fontSize=12;fontStyle=0;aspect=fixed;shape=mxgraph.aws4.resourceIcon;resIcon=mxgraph.aws4.kinesis_video_streams;labelPosition=center;" vertex="1" parent="1">
          <mxGeometry x="340" y="1010" width="54.5" height="54.5" as="geometry" />
        </mxCell>
        <mxCell id="5CDg7A2IwqHqPvgLmuk0-22" value="视频流处理模块" style="text;html=1;align=center;verticalAlign=middle;resizable=0;points=[];autosize=1;strokeColor=none;fillColor=none;" vertex="1" parent="1">
          <mxGeometry x="147.5" y="950" width="110" height="30" as="geometry" />
        </mxCell>
        <mxCell id="5CDg7A2IwqHqPvgLmuk0-23" value="" style="rounded=0;whiteSpace=wrap;html=1;" vertex="1" parent="1">
          <mxGeometry x="450" y="980" width="262.5" height="100" as="geometry" />
        </mxCell>
        <mxCell id="5CDg7A2IwqHqPvgLmuk0-24" value="预处理模块" style="text;html=1;align=center;verticalAlign=middle;resizable=0;points=[];autosize=1;strokeColor=none;fillColor=none;" vertex="1" parent="1">
          <mxGeometry x="460" y="950" width="80" height="30" as="geometry" />
        </mxCell>
        <mxCell id="5CDg7A2IwqHqPvgLmuk0-25" value="帧缓存" style="image;sketch=0;aspect=fixed;html=1;points=[];align=center;fontSize=12;image=img/lib/mscae/Cache_Redis_Product.svg;labelPosition=center;verticalLabelPosition=top;verticalAlign=bottom;" vertex="1" parent="1">
          <mxGeometry x="593.28" y="1000" width="79.76" height="67" as="geometry" />
        </mxCell>
        <mxCell id="5CDg7A2IwqHqPvgLmuk0-26" value="关键帧提取" style="sketch=0;points=[[0,0,0],[0.25,0,0],[0.5,0,0],[0.75,0,0],[1,0,0],[0,1,0],[0.25,1,0],[0.5,1,0],[0.75,1,0],[1,1,0],[0,0.25,0],[0,0.5,0],[0,0.75,0],[1,0.25,0],[1,0.5,0],[1,0.75,0]];outlineConnect=0;fontColor=#232F3E;fillColor=#ED7100;strokeColor=#ffffff;dashed=0;verticalLabelPosition=top;verticalAlign=bottom;align=center;html=1;fontSize=12;fontStyle=0;aspect=fixed;shape=mxgraph.aws4.resourceIcon;resIcon=mxgraph.aws4.elastic_transcoder;labelPosition=center;" vertex="1" parent="1">
          <mxGeometry x="471" y="998" width="69" height="69" as="geometry" />
        </mxCell>
        <mxCell id="5CDg7A2IwqHqPvgLmuk0-27" value="" style="rounded=0;whiteSpace=wrap;html=1;" vertex="1" parent="1">
          <mxGeometry x="139" y="1150" width="1331" height="210" as="geometry" />
        </mxCell>
        <mxCell id="5CDg7A2IwqHqPvgLmuk0-28" value="AI 处理层" style="text;html=1;align=center;verticalAlign=middle;resizable=0;points=[];autosize=1;strokeColor=none;fillColor=none;" vertex="1" parent="1">
          <mxGeometry x="130" y="1120" width="70" height="30" as="geometry" />
        </mxCell>
        <mxCell id="5CDg7A2IwqHqPvgLmuk0-29" value="" style="rounded=0;whiteSpace=wrap;html=1;" vertex="1" parent="1">
          <mxGeometry x="165" y="1180" width="425" height="130" as="geometry" />
        </mxCell>
        <mxCell id="5CDg7A2IwqHqPvgLmuk0-30" value="YOLOv8n" style="image;aspect=fixed;html=1;points=[];align=center;fontSize=12;image=img/lib/azure2/ai_machine_learning/Machine_Learning_Studio_Classic_Web_Services.svg;labelPosition=center;verticalLabelPosition=top;verticalAlign=bottom;" vertex="1" parent="1">
          <mxGeometry x="170" y="1210" width="65" height="65" as="geometry" />
        </mxCell>
        <mxCell id="5CDg7A2IwqHqPvgLmuk0-31" value="Resnet" style="image;aspect=fixed;html=1;points=[];align=center;fontSize=12;image=img/lib/azure2/ai_machine_learning/Face_APIs.svg;labelPosition=center;verticalLabelPosition=top;verticalAlign=bottom;" vertex="1" parent="1">
          <mxGeometry x="257.5" y="1207" width="68" height="68" as="geometry" />
        </mxCell>
        <mxCell id="5CDg7A2IwqHqPvgLmuk0-32" value="GPU 加速" style="image;aspect=fixed;html=1;points=[];align=center;fontSize=12;image=img/lib/azure2/ai_machine_learning/Azure_Applied_AI.svg;labelPosition=center;verticalLabelPosition=top;verticalAlign=bottom;" vertex="1" parent="1">
          <mxGeometry x="349.46" y="1210" width="77.77" height="59.47" as="geometry" />
        </mxCell>
        <mxCell id="5CDg7A2IwqHqPvgLmuk0-33" value="目标检测" style="text;html=1;align=center;verticalAlign=middle;resizable=0;points=[];autosize=1;strokeColor=none;fillColor=none;" vertex="1" parent="1">
          <mxGeometry x="155" y="1150" width="70" height="30" as="geometry" />
        </mxCell>
        <mxCell id="5CDg7A2IwqHqPvgLmuk0-34" value="" style="rounded=0;whiteSpace=wrap;html=1;" vertex="1" parent="1">
          <mxGeometry x="630.5" y="1180" width="339.5" height="130" as="geometry" />
        </mxCell>
        <mxCell id="5CDg7A2IwqHqPvgLmuk0-35" value="特征分析" style="text;html=1;align=center;verticalAlign=middle;resizable=0;points=[];autosize=1;strokeColor=none;fillColor=none;" vertex="1" parent="1">
          <mxGeometry x="630.5" y="1150" width="70" height="30" as="geometry" />
        </mxCell>
        <mxCell id="5CDg7A2IwqHqPvgLmuk0-36" value="帧纹理" style="image;aspect=fixed;html=1;points=[];align=center;fontSize=12;image=img/lib/azure2/app_services/Search_Services.svg;labelPosition=center;verticalLabelPosition=top;verticalAlign=bottom;" vertex="1" parent="1">
          <mxGeometry x="751.25" y="1207" width="87.21" height="63" as="geometry" />
        </mxCell>
        <mxCell id="5CDg7A2IwqHqPvgLmuk0-37" value="亮度特征" style="image;aspect=fixed;html=1;points=[];align=center;fontSize=12;image=img/lib/azure2/ai_machine_learning/Custom_Vision.svg;labelPosition=center;verticalLabelPosition=top;verticalAlign=bottom;" vertex="1" parent="1">
          <mxGeometry x="860.5" y="1201" width="73" height="73" as="geometry" />
        </mxCell>
        <mxCell id="5CDg7A2IwqHqPvgLmuk0-38" value="边缘检测" style="image;aspect=fixed;html=1;points=[];align=center;fontSize=12;image=img/lib/azure2/ai_machine_learning/Immersive_Readers.svg;labelPosition=center;verticalLabelPosition=top;verticalAlign=bottom;" vertex="1" parent="1">
          <mxGeometry x="660" y="1205.78" width="70.44" height="70.44" as="geometry" />
        </mxCell>
        <mxCell id="5CDg7A2IwqHqPvgLmuk0-39" value="" style="rounded=0;whiteSpace=wrap;html=1;" vertex="1" parent="1">
          <mxGeometry x="800" y="630" width="670" height="480" as="geometry" />
        </mxCell>
        <mxCell id="5CDg7A2IwqHqPvgLmuk0-40" value="中台层" style="text;html=1;align=center;verticalAlign=middle;resizable=0;points=[];autosize=1;strokeColor=none;fillColor=none;" vertex="1" parent="1">
          <mxGeometry x="805" y="605" width="60" height="30" as="geometry" />
        </mxCell>
        <mxCell id="5CDg7A2IwqHqPvgLmuk0-41" value="spring cloud" style="image;aspect=fixed;html=1;points=[];align=center;fontSize=12;image=img/lib/azure2/compute/Azure_Spring_Cloud.svg;labelPosition=center;verticalLabelPosition=top;verticalAlign=bottom;" vertex="1" parent="1">
          <mxGeometry x="840" y="674" width="71" height="71" as="geometry" />
        </mxCell>
        <mxCell id="5CDg7A2IwqHqPvgLmuk0-42" value="用户管理" style="image;aspect=fixed;html=1;points=[];align=center;fontSize=12;image=img/lib/azure2/ai_machine_learning/Cognitive_Services.svg;labelPosition=center;verticalLabelPosition=top;verticalAlign=bottom;" vertex="1" parent="1">
          <mxGeometry x="940" y="674" width="93.5" height="66" as="geometry" />
        </mxCell>
        <mxCell id="5CDg7A2IwqHqPvgLmuk0-43" value="素材库" style="sketch=0;points=[[0,0,0],[0.25,0,0],[0.5,0,0],[0.75,0,0],[1,0,0],[0,1,0],[0.25,1,0],[0.5,1,0],[0.75,1,0],[1,1,0],[0,0.25,0],[0,0.5,0],[0,0.75,0],[1,0.25,0],[1,0.5,0],[1,0.75,0]];outlineConnect=0;fontColor=#232F3E;fillColor=#7AA116;strokeColor=#ffffff;dashed=0;verticalLabelPosition=top;verticalAlign=bottom;align=center;html=1;fontSize=12;fontStyle=0;aspect=fixed;shape=mxgraph.aws4.resourceIcon;resIcon=mxgraph.aws4.elastic_block_store;labelPosition=center;" vertex="1" parent="1">
          <mxGeometry x="1340" y="674" width="78" height="78" as="geometry" />
        </mxCell>
        <mxCell id="5CDg7A2IwqHqPvgLmuk0-44" value="权限管理" style="sketch=0;points=[[0,0,0],[0.25,0,0],[0.5,0,0],[0.75,0,0],[1,0,0],[0,1,0],[0.25,1,0],[0.5,1,0],[0.75,1,0],[1,1,0],[0,0.25,0],[0,0.5,0],[0,0.75,0],[1,0.25,0],[1,0.5,0],[1,0.75,0]];outlineConnect=0;fontColor=#232F3E;fillColor=#DD344C;strokeColor=#ffffff;dashed=0;verticalLabelPosition=top;verticalAlign=bottom;align=center;html=1;fontSize=12;fontStyle=0;aspect=fixed;shape=mxgraph.aws4.resourceIcon;resIcon=mxgraph.aws4.cognito;labelPosition=center;" vertex="1" parent="1">
          <mxGeometry x="1070" y="671" width="78" height="78" as="geometry" />
        </mxCell>
        <mxCell id="5CDg7A2IwqHqPvgLmuk0-45" value="直播管理" style="sketch=0;points=[[0,0,0],[0.25,0,0],[0.5,0,0],[0.75,0,0],[1,0,0],[0,1,0],[0.25,1,0],[0.5,1,0],[0.75,1,0],[1,1,0],[0,0.25,0],[0,0.5,0],[0,0.75,0],[1,0.25,0],[1,0.5,0],[1,0.75,0]];outlineConnect=0;fontColor=#232F3E;fillColor=#DD344C;strokeColor=#ffffff;dashed=0;verticalLabelPosition=top;verticalAlign=bottom;align=center;html=1;fontSize=12;fontStyle=0;aspect=fixed;shape=mxgraph.aws4.resourceIcon;resIcon=mxgraph.aws4.macie;labelPosition=center;" vertex="1" parent="1">
          <mxGeometry x="1200" y="672" width="78" height="78" as="geometry" />
        </mxCell>
        <mxCell id="5CDg7A2IwqHqPvgLmuk0-46" value="Kafka" style="sketch=0;points=[[0,0,0],[0.25,0,0],[0.5,0,0],[0.75,0,0],[1,0,0],[0,1,0],[0.25,1,0],[0.5,1,0],[0.75,1,0],[1,1,0],[0,0.25,0],[0,0.5,0],[0,0.75,0],[1,0.25,0],[1,0.5,0],[1,0.75,0]];outlineConnect=0;fontColor=#232F3E;fillColor=#8C4FFF;strokeColor=#ffffff;dashed=0;verticalLabelPosition=top;verticalAlign=bottom;align=center;html=1;fontSize=12;fontStyle=0;aspect=fixed;shape=mxgraph.aws4.resourceIcon;resIcon=mxgraph.aws4.managed_streaming_for_kafka;labelPosition=center;" vertex="1" parent="1">
          <mxGeometry x="836.5" y="790" width="78" height="78" as="geometry" />
        </mxCell>
        <mxCell id="5CDg7A2IwqHqPvgLmuk0-47" value="" style="edgeStyle=orthogonalEdgeStyle;rounded=0;orthogonalLoop=1;jettySize=auto;html=1;" edge="1" parent="1" source="5CDg7A2IwqHqPvgLmuk0-48" target="5CDg7A2IwqHqPvgLmuk0-42">
          <mxGeometry relative="1" as="geometry" />
        </mxCell>
        <mxCell id="5CDg7A2IwqHqPvgLmuk0-48" value="ClickHouse" style="points=[];aspect=fixed;html=1;align=center;shadow=0;dashed=0;fillColor=#FF6A00;strokeColor=none;shape=mxgraph.alibaba_cloud.clickhouse;labelPosition=center;verticalLabelPosition=top;verticalAlign=bottom;" vertex="1" parent="1">
          <mxGeometry x="950" y="790" width="69.95" height="80" as="geometry" />
        </mxCell>
        <mxCell id="5CDg7A2IwqHqPvgLmuk0-49" value="HDFS" style="outlineConnect=0;dashed=0;verticalLabelPosition=top;verticalAlign=bottom;align=center;html=1;shape=mxgraph.aws3.hdfs_cluster;fillColor=#F58534;gradientColor=none;labelPosition=center;" vertex="1" parent="1">
          <mxGeometry x="1060" y="790" width="70" height="70" as="geometry" />
        </mxCell>
        <mxCell id="5CDg7A2IwqHqPvgLmuk0-50" value="Redis" style="image;sketch=0;aspect=fixed;html=1;points=[];align=center;fontSize=12;image=img/lib/mscae/Cache_Redis_Product.svg;labelPosition=center;verticalLabelPosition=top;verticalAlign=bottom;" vertex="1" parent="1">
          <mxGeometry x="1190" y="790" width="79.76" height="67" as="geometry" />
        </mxCell>
        <mxCell id="5CDg7A2IwqHqPvgLmuk0-51" value="WebSocket" style="sketch=0;points=[[0,0,0],[0.25,0,0],[0.5,0,0],[0.75,0,0],[1,0,0],[0,1,0],[0.25,1,0],[0.5,1,0],[0.75,1,0],[1,1,0],[0,0.25,0],[0,0.5,0],[0,0.75,0],[1,0.25,0],[1,0.5,0],[1,0.75,0]];outlineConnect=0;fontColor=#232F3E;fillColor=#C925D1;strokeColor=#ffffff;dashed=0;verticalLabelPosition=top;verticalAlign=bottom;align=center;html=1;fontSize=12;fontStyle=0;aspect=fixed;shape=mxgraph.aws4.resourceIcon;resIcon=mxgraph.aws4.cloud_control_api;labelPosition=center;" vertex="1" parent="1">
          <mxGeometry x="1320" y="784.5" width="78" height="78" as="geometry" />
        </mxCell>
        <mxCell id="5CDg7A2IwqHqPvgLmuk0-52" value="运维" style="sketch=0;points=[[0,0,0],[0.25,0,0],[0.5,0,0],[0.75,0,0],[1,0,0],[0,1,0],[0.25,1,0],[0.5,1,0],[0.75,1,0],[1,1,0],[0,0.25,0],[0,0.5,0],[0,0.75,0],[1,0.25,0],[1,0.5,0],[1,0.75,0]];outlineConnect=0;fontColor=#232F3E;fillColor=#C925D1;strokeColor=#ffffff;dashed=0;verticalLabelPosition=top;verticalAlign=bottom;align=center;html=1;fontSize=12;fontStyle=0;aspect=fixed;shape=mxgraph.aws4.resourceIcon;resIcon=mxgraph.aws4.codebuild;labelPosition=center;" vertex="1" parent="1">
          <mxGeometry x="1190.88" y="902" width="78" height="78" as="geometry" />
        </mxCell>
        <mxCell id="5CDg7A2IwqHqPvgLmuk0-53" value="链路追踪" style="sketch=0;points=[[0,0,0],[0.25,0,0],[0.5,0,0],[0.75,0,0],[1,0,0],[0,1,0],[0.25,1,0],[0.5,1,0],[0.75,1,0],[1,1,0],[0,0.25,0],[0,0.5,0],[0,0.75,0],[1,0.25,0],[1,0.5,0],[1,0.75,0]];outlineConnect=0;fontColor=#232F3E;fillColor=#C925D1;strokeColor=#ffffff;dashed=0;verticalLabelPosition=top;verticalAlign=bottom;align=center;html=1;fontSize=12;fontStyle=0;aspect=fixed;shape=mxgraph.aws4.resourceIcon;resIcon=mxgraph.aws4.codestar;labelPosition=center;" vertex="1" parent="1">
          <mxGeometry x="1320" y="902" width="78" height="78" as="geometry" />
        </mxCell>
        <mxCell id="5CDg7A2IwqHqPvgLmuk0-54" value="" style="image;sketch=0;aspect=fixed;html=1;points=[];align=center;fontSize=12;image=img/lib/mscae/Docker.svg;" vertex="1" parent="1">
          <mxGeometry x="840" y="912.3" width="82.56" height="67.7" as="geometry" />
        </mxCell>
        <mxCell id="5CDg7A2IwqHqPvgLmuk0-55" value="" style="sketch=0;points=[[0,0,0],[0.25,0,0],[0.5,0,0],[0.75,0,0],[1,0,0],[0,1,0],[0.25,1,0],[0.5,1,0],[0.75,1,0],[1,1,0],[0,0.25,0],[0,0.5,0],[0,0.75,0],[1,0.25,0],[1,0.5,0],[1,0.75,0]];outlineConnect=0;fontColor=#232F3E;fillColor=#ED7100;strokeColor=#ffffff;dashed=0;verticalLabelPosition=bottom;verticalAlign=top;align=center;html=1;fontSize=12;fontStyle=0;aspect=fixed;shape=mxgraph.aws4.resourceIcon;resIcon=mxgraph.aws4.eks;" vertex="1" parent="1">
          <mxGeometry x="956" y="907" width="78" height="78" as="geometry" />
        </mxCell>
        <mxCell id="5CDg7A2IwqHqPvgLmuk0-56" value="AIGC" style="sketch=0;points=[[0,0,0],[0.25,0,0],[0.5,0,0],[0.75,0,0],[1,0,0],[0,1,0],[0.25,1,0],[0.5,1,0],[0.75,1,0],[1,1,0],[0,0.25,0],[0,0.5,0],[0,0.75,0],[1,0.25,0],[1,0.5,0],[1,0.75,0]];outlineConnect=0;fontColor=#232F3E;fillColor=#ED7100;strokeColor=#ffffff;dashed=0;verticalLabelPosition=top;verticalAlign=bottom;align=center;html=1;fontSize=12;fontStyle=0;aspect=fixed;shape=mxgraph.aws4.resourceIcon;resIcon=mxgraph.aws4.quantum_technologies;labelPosition=center;" vertex="1" parent="1">
          <mxGeometry x="460" y="1201" width="78" height="78" as="geometry" />
        </mxCell>
        <mxCell id="5CDg7A2IwqHqPvgLmuk0-57" value="" style="rounded=0;whiteSpace=wrap;html=1;" vertex="1" parent="1">
          <mxGeometry x="1000" y="1180" width="410" height="130" as="geometry" />
        </mxCell>
        <mxCell id="5CDg7A2IwqHqPvgLmuk0-58" value="推理跟踪" style="text;html=1;align=center;verticalAlign=middle;resizable=0;points=[];autosize=1;strokeColor=none;fillColor=none;" vertex="1" parent="1">
          <mxGeometry x="990" y="1150" width="70" height="30" as="geometry" />
        </mxCell>
        <mxCell id="5CDg7A2IwqHqPvgLmuk0-59" value="帧生成" style="image;aspect=fixed;html=1;points=[];align=center;fontSize=12;image=img/lib/azure2/ai_machine_learning/Batch_AI.svg;labelPosition=center;verticalLabelPosition=top;verticalAlign=bottom;" vertex="1" parent="1">
          <mxGeometry x="1033.5" y="1205.78" width="52.39" height="74.22" as="geometry" />
        </mxCell>
        <mxCell id="5CDg7A2IwqHqPvgLmuk0-60" value="滤波" style="image;aspect=fixed;html=1;points=[];align=center;fontSize=12;image=img/lib/azure2/ai_machine_learning/Azure_Experimentation_Studio.svg;labelPosition=center;verticalLabelPosition=top;verticalAlign=bottom;" vertex="1" parent="1">
          <mxGeometry x="1220" y="1207" width="80" height="65.88" as="geometry" />
        </mxCell>
        <mxCell id="5CDg7A2IwqHqPvgLmuk0-61" value="KCF&lt;div&gt;&lt;br&gt;&lt;/div&gt;" style="image;aspect=fixed;html=1;points=[];align=center;fontSize=12;image=img/lib/azure2/ai_machine_learning/Cognitive_Services.svg;labelPosition=center;verticalLabelPosition=top;verticalAlign=bottom;" vertex="1" parent="1">
          <mxGeometry x="1122" y="1218.89" width="68" height="48" as="geometry" />
        </mxCell>
        <mxCell id="5CDg7A2IwqHqPvgLmuk0-62" value="Prometheus" style="points=[];aspect=fixed;html=1;align=center;shadow=0;dashed=0;fillColor=#FF6A00;strokeColor=none;shape=mxgraph.alibaba_cloud.prometheus;labelPosition=center;verticalLabelPosition=top;verticalAlign=bottom;" vertex="1" parent="1">
          <mxGeometry x="1074" y="907" width="73" height="73" as="geometry" />
        </mxCell>
        <mxCell id="5CDg7A2IwqHqPvgLmuk0-63" value="" style="rounded=0;whiteSpace=wrap;html=1;" vertex="1" parent="1">
          <mxGeometry x="148" y="1430" width="1322" height="260" as="geometry" />
        </mxCell>
        <mxCell id="5CDg7A2IwqHqPvgLmuk0-64" value="渲染与编码层" style="text;html=1;align=center;verticalAlign=middle;resizable=0;points=[];autosize=1;strokeColor=none;fillColor=none;" vertex="1" parent="1">
          <mxGeometry x="125" y="1400" width="100" height="30" as="geometry" />
        </mxCell>
        <mxCell id="5CDg7A2IwqHqPvgLmuk0-65" value="" style="rounded=0;whiteSpace=wrap;html=1;" vertex="1" parent="1">
          <mxGeometry x="150" y="1760" width="1330" height="240" as="geometry" />
        </mxCell>
        <mxCell id="5CDg7A2IwqHqPvgLmuk0-66" value="流推送分发层" style="text;html=1;align=center;verticalAlign=middle;resizable=0;points=[];autosize=1;strokeColor=none;fillColor=none;" vertex="1" parent="1">
          <mxGeometry x="135" y="1720" width="100" height="30" as="geometry" />
        </mxCell>
      </root>
    </mxGraphModel>
  </diagram>
</mxfile>
